<?xml version="1.0" encoding="iso-8859-1"?>
<!-- Generator: Adobe Illustrator 19.0.0, SVG Export Plug-In . SVG Version: 6.00 Build 0)  -->
<svg version="1.1" id="Capa_1" xmlns="http://www.w3.org/2000/svg" xmlns:xlink="http://www.w3.org/1999/xlink" x="0px" y="0px"
	 viewBox="0 0 490 490" style="enable-background:new 0 0 490 490;" xml:space="preserve">
<g>
	<path d="M245,0C109.5,0,0,109.5,0,245s109.5,245,245,245s245-109.5,245-245S380.5,0,245,0z M343.8,309.2c2.2-21,3.3-42.6,3.3-64.2
		s-1.1-43.2-3.3-64.1c66.8,14.5,105.5,42.1,105.5,64.1S411,294.8,343.8,309.2z M245,449.3c-16.2,0-37.3-34.2-50.1-91.8
		c16.1,1.4,32.8,2.2,50.1,2.2s34-0.8,50.1-2.2C282.3,415.1,261.2,449.3,245,449.3z M245,319c-20.4,0-39.5-1.1-57.2-3.1
		c-2.7-21.6-4.3-45.4-4.3-70.9c0-25.6,1.6-49.3,4.4-70.9c17.7-2,36.8-3.1,57.1-3.1s39.4,1.1,57.1,3.1c2.8,21.6,4.4,45.4,4.4,70.9
		c0,25.6-1.6,49.3-4.3,70.9C284.5,317.9,265.4,319,245,319z M40.7,245c0-22,38.7-49.7,105.5-64.1c-2.2,21-3.3,42.6-3.3,64.1
		c0,21.6,1.1,43.3,3.3,64.2C79,294.8,40.7,267,40.7,245z M245,40.7c15.6,0,36.8,34.2,49.8,91.8c-16-1.4-32.6-2.2-49.8-2.2
		s-33.8,0.7-49.8,2.2C208.2,74.9,229.4,40.7,245,40.7z M435.5,171.1c-25.6-14.6-59-25.9-97.8-32.9c-6.3-33.3-15.6-63.4-27.8-86.9
		C367.3,70.5,413.5,114.8,435.5,171.1z M180.2,51.2c-12.3,23.5-21.6,53.6-27.8,86.9c-38.8,7-72.2,18.3-97.8,32.9
		C76.5,114.8,122.7,70.5,180.2,51.2z M54.5,318.9c25.6,14.6,59,25.9,97.8,32.9c6.3,33.3,15.6,63.4,27.8,86.9
		C122.7,419.5,76.5,375.2,54.5,318.9z M309.8,438.8c12.3-23.5,21.6-53.6,27.8-86.9c38.8-7,72.2-18.3,97.8-32.9
		C413.5,375.2,367.3,419.5,309.8,438.8z"/>
</g>
<g>
</g>
<g>
</g>
<g>
</g>
<g>
</g>
<g>
</g>
<g>
</g>
<g>
</g>
<g>
</g>
<g>
</g>
<g>
</g>
<g>
</g>
<g>
</g>
<g>
</g>
<g>
</g>
<g>
</g>
</svg>
